<svg width="170" height="160" viewBox="0 0 170 160" fill="none" xmlns="http://www.w3.org/2000/svg">
<path d="M127.412 26.9759L47.1254 46.5809C42.6374 47.6768 39.882 52.2262 40.9711 56.7424L59.8325 134.956C60.9216 139.472 65.4427 142.245 69.9307 141.149L150.218 121.544C154.706 120.448 157.461 115.899 156.372 111.383L137.51 33.1688C136.421 28.6527 131.9 25.88 127.412 26.9759Z" stroke="#231F20" stroke-width="8" stroke-miterlimit="10"/>
<path d="M67.0983 41.52C66.4798 41.3583 36.8469 32.4911 36.8469 32.4911C36.8469 32.4911 34.3809 31.5616 33.6901 32.4911C32.9992 33.4207 32.0835 37.6401 32.0835 37.6401L10.4593 120.751C10.4593 120.751 9.78458 123.451 11.6241 123.741C13.4636 124.032 61.7485 136.246 61.7485 136.246" stroke="#231F20" stroke-width="8" stroke-miterlimit="10"/>
<path d="M75.7415 139.722C75.7415 139.722 99.7835 148.476 101.358 147.522L105.021 133.441" stroke="#231F20" stroke-width="8" stroke-miterlimit="10"/>
<path d="M93.767 47.6227L98.6992 37.1147L99.4141 35.6031C99.8289 34.8408 99.9464 33.9503 99.7434 33.1055C99.509 32.2978 98.9814 31.6082 98.2654 31.1736C96.8356 30.4138 94.6346 30.7048 93.8634 32.3376L88.9313 42.8456L88.2566 44.3572C87.8442 45.1175 87.7296 46.0056 87.9353 46.8468C88.1585 47.6601 88.689 48.3534 89.4133 48.7786C90.8431 49.5384 93.0361 49.2475 93.8072 47.6227H93.767Z" fill="#231F20"/>
<path d="M98.667 33.0004C104.598 33.0004 109.407 28.1619 109.407 22.1932C109.407 16.2246 104.598 11.3861 98.667 11.3861C92.7356 11.3861 87.9272 16.2246 87.9272 22.1932C87.9272 28.1619 92.7356 33.0004 98.667 33.0004Z" stroke="#231F20" stroke-width="8" stroke-miterlimit="10"/>
<path d="M89.9033 85.5649C89.3799 86.5069 89.0759 87.5561 89.0142 88.6334C88.9525 89.7108 89.1346 90.7882 89.5468 91.7845C89.9591 92.7807 90.5907 93.6698 91.3941 94.3846C92.1975 95.0995 93.1517 95.6215 94.1847 95.9113C95.1975 96.164 96.2501 96.2119 97.2815 96.0524C98.3129 95.8928 99.3026 95.5289 100.193 94.9818C101.03 94.4744 101.728 93.7662 102.225 92.9206C102.475 92.4922 102.691 92.0395 102.916 91.603C103.141 91.1665 103.495 90.4875 103.808 89.9379C103.904 89.752 104.033 89.5822 104.129 89.3963C104.226 89.2104 103.768 89.8166 103.904 89.6792C104.041 89.5418 104.025 89.5499 103.8 89.7681C103.575 89.9864 103.8 89.8328 103.88 89.7681C103.776 89.8409 103.358 89.9541 103.72 89.8571C104.081 89.7601 103.077 89.8571 103.342 89.9136C103.342 89.9136 102.74 89.7843 102.956 89.8651L103.205 89.9217C103.479 90.0026 103.744 90.0995 104.009 90.1965L104.86 90.536L105.318 90.7219C104.981 90.5845 105.318 90.7219 105.406 90.7219L106.483 91.1908C107.386 91.5933 108.362 91.8051 109.351 91.8132C111.322 91.8284 113.229 91.1052 114.7 89.7843C115.535 88.9578 116.144 87.9278 116.466 86.7947C116.788 85.6616 116.814 84.4638 116.54 83.3178C116.31 82.1137 115.745 81.0003 114.91 80.1072C114.075 79.2142 113.005 78.5784 111.825 78.2739C111.565 78.2028 111.293 78.1839 111.026 78.2184C110.759 78.2528 110.501 78.3398 110.267 78.4746C110.033 78.6093 109.828 78.7891 109.663 79.0036C109.498 79.2181 109.377 79.4632 109.306 79.7249C109.236 79.9865 109.217 80.2596 109.251 80.5286C109.285 80.7975 109.372 81.0571 109.506 81.2924C109.64 81.5277 109.818 81.7342 110.031 81.9C110.245 82.0658 110.488 82.1878 110.748 82.2589C110.909 82.2589 111.07 82.3559 111.222 82.4044C111.375 82.4529 111.415 82.4044 111.142 82.3559C111.239 82.3929 111.33 82.4418 111.415 82.5014C111.509 82.5505 111.6 82.6045 111.688 82.6631C111.784 82.7277 111.921 82.8975 111.688 82.6631L112.066 83.043C112.307 83.2936 112.009 83.043 112.001 82.9541C112.046 83.0337 112.097 83.1094 112.154 83.1804C112.25 83.334 112.331 83.4956 112.419 83.6573C112.507 83.819 112.475 83.6088 112.419 83.5522C112.419 83.5522 112.507 83.7947 112.515 83.8109C112.572 83.9806 112.62 84.1665 112.66 84.3444C112.685 84.4346 112.704 84.5264 112.716 84.6192C112.716 84.6192 112.716 84.1746 112.716 84.4979C112.716 84.6839 112.716 84.8617 112.716 85.0476C112.716 85.2335 112.668 85.4356 112.716 85.6053C112.716 85.5407 112.813 85.1365 112.716 85.476C112.716 85.5892 112.716 85.6942 112.644 85.8074C112.572 85.9206 112.564 86.2439 112.499 86.2601C112.435 86.2762 112.684 85.8802 112.499 86.1469C112.451 86.2277 112.411 86.3086 112.371 86.3894L112.226 86.6076C112.033 86.939 112.291 86.4945 112.315 86.5106C112.339 86.5268 111.945 86.9067 111.913 86.931C111.853 86.9918 111.788 87.0485 111.72 87.1007C111.543 87.2866 112.05 86.9148 111.825 87.028C111.6 87.1411 111.568 87.1977 111.439 87.2705C111.291 87.3592 111.138 87.4402 110.981 87.5129C110.636 87.6908 111.094 87.4564 111.102 87.4644L110.788 87.5776C110.625 87.6346 110.459 87.6832 110.29 87.7231C110.137 87.7316 109.986 87.7615 109.841 87.812C109.897 87.7231 110.282 87.812 109.993 87.812H109.736C109.551 87.812 109.359 87.812 109.174 87.812C108.989 87.812 108.515 87.7554 108.885 87.812C109.254 87.8686 108.708 87.7716 108.628 87.7554L108.242 87.6342C107.864 87.5291 108.732 87.8524 108.387 87.6989L107.214 87.1896C106.186 86.6764 105.109 86.2675 104.001 85.9691C103.494 85.8703 102.972 85.8919 102.476 86.0323C101.979 86.1726 101.522 86.4278 101.141 86.7774C100.816 87.1219 100.545 87.5144 100.338 87.9414C99.8237 88.8628 99.3578 89.8166 98.8598 90.7543L98.7634 90.9159C98.7634 90.9887 98.683 91.0453 98.6429 91.118C98.4662 91.409 98.7071 90.9968 98.7393 90.9968C98.7714 90.9968 98.4501 91.2958 98.4019 91.3443C98.3347 91.3974 98.2703 91.4541 98.2091 91.5141C98.2091 91.4494 98.6108 91.2473 98.2091 91.4575L97.8075 91.6919C97.7285 91.7403 97.6451 91.7809 97.5585 91.8132C97.6067 91.8132 97.944 91.6677 97.6629 91.8132C97.2843 91.9428 96.898 92.0481 96.5062 92.1284C96.2331 92.1931 96.8998 92.1284 96.6186 92.1284C96.4981 92.1284 96.3776 92.1284 96.2572 92.1284C96.0431 92.1405 95.8286 92.1405 95.6145 92.1284C95.5342 92.1284 95.237 92.0557 95.5262 92.1284C95.8154 92.2012 95.3977 92.1284 95.3736 92.1284C95.1647 92.0799 94.9639 92.0072 94.755 91.9425C94.5462 91.8778 95.0924 92.1203 94.8514 91.9425L94.5462 91.7808L94.3052 91.6353C94.249 91.6353 93.9437 91.3363 94.1686 91.5383L94.0963 91.4737C94.008 91.3928 93.9277 91.312 93.8473 91.2231L93.6545 91.0129C93.3975 90.7381 93.7831 91.2312 93.6545 91.0129C93.526 90.7947 93.4216 90.6573 93.3172 90.4633C93.3172 90.4633 93.1967 90.2046 93.1886 90.2046C93.1806 90.2046 93.3413 90.6169 93.1886 90.2046C93.1164 89.9945 93.0682 89.7762 93.0119 89.5661C92.9557 89.3559 92.8834 89.17 93.0119 89.6631C92.992 89.5101 92.992 89.3552 93.0119 89.2023C93.0119 89.0811 93.0119 88.9679 93.0119 88.8467V88.5961V88.8143C93.0274 88.5945 93.079 88.3787 93.1645 88.1758C93.1645 88.0868 93.2208 88.006 93.2449 87.9252C93.3493 87.5938 93.2931 87.9252 93.1886 88.0222C93.2698 87.898 93.3371 87.7651 93.3895 87.6261C93.5224 87.3968 93.6091 87.1434 93.6447 86.8804C93.6803 86.6174 93.6641 86.3499 93.597 86.0932C93.5298 85.8365 93.4131 85.5956 93.2535 85.3843C93.0938 85.173 92.8944 84.9954 92.6665 84.8617C92.4387 84.7279 92.1869 84.6407 91.9255 84.6048C91.6641 84.569 91.3983 84.5853 91.1432 84.6529C90.8881 84.7204 90.6487 84.8379 90.4387 84.9985C90.2287 85.1592 90.0522 85.3599 89.9193 85.5892L89.9033 85.5649Z" fill="#231F20"/>
<path d="M126.099 54.3236C119.914 56.8375 114.283 60.4991 110.218 65.9067C108.774 67.8492 107.601 69.9814 106.732 72.2439C106.611 72.6567 106.605 73.0948 106.714 73.5108C106.823 73.9267 107.043 74.3048 107.35 74.6042C107.656 74.9005 108.032 75.1133 108.443 75.2222C108.853 75.3311 109.285 75.3327 109.696 75.2266C111.383 74.879 113.078 74.5961 114.781 74.3213L116.01 74.1354L116.604 74.0464H116.909C117.456 73.9656 116.323 74.1192 116.909 74.0464C117.809 73.9252 118.717 73.8201 119.624 73.7312C121.646 73.5412 123.676 73.4683 125.705 73.513C126.822 73.513 127.938 73.61 129.055 73.7231C129.481 73.7231 129.906 73.8201 130.324 73.8686H130.059H130.316L130.991 73.9737C133.168 74.333 135.315 74.8517 137.417 75.5257C138.033 75.6969 138.691 75.6151 139.247 75.2983C139.802 74.9815 140.21 74.4557 140.381 73.8363C140.536 73.2173 140.448 72.5619 140.136 72.0064C139.823 71.4509 139.31 71.038 138.702 70.8536C134.798 69.6048 130.746 68.8792 126.653 68.6954C122.528 68.5789 118.4 68.8686 114.331 69.5603C112.363 69.8594 110.403 70.1827 108.451 70.5869L111.415 73.5695C111.463 73.4564 111.495 73.327 111.552 73.222C111.319 73.6827 111.479 73.3917 111.552 73.2785C111.656 73.0441 111.76 72.8178 111.873 72.5834C112.106 72.0984 112.355 71.6134 112.612 71.1446C113.054 70.3363 113.536 69.6088 114.05 68.8813L114.419 68.3883C114.628 68.1054 114.419 68.5095 114.323 68.5095C114.392 68.4379 114.454 68.3594 114.508 68.2751C114.781 67.9356 115.054 67.6123 115.311 67.289C115.865 66.6585 116.452 66.0603 117.054 65.4864C117.656 64.9125 118.227 64.4275 118.845 63.9345L119.118 63.7081C119.359 63.5222 118.717 64.0153 118.966 63.8375L119.408 63.498C119.721 63.2717 120.034 63.0453 120.355 62.8271C121.556 62.0008 122.806 61.2503 124.099 60.58C124.725 60.2486 125.368 59.9333 126.019 59.6342L126.95 59.2139C127.48 58.9795 126.412 59.4403 126.95 59.2139L127.408 59.028C128.001 58.8395 128.51 58.4477 128.846 57.9206C129.009 57.6402 129.114 57.3297 129.156 57.0076C129.197 56.6855 129.174 56.3582 129.087 56.0453C128.726 54.9137 127.376 53.8467 126.123 54.356L126.099 54.3236Z" fill="#231F20"/>
<path d="M63.6763 75.3802L64.1181 75.3155H64.343H64.0458C64.3992 75.2427 64.7607 75.2185 65.1222 75.1781C65.8505 75.0973 66.5815 75.0326 67.3151 74.9841C68.9381 74.8742 70.5658 74.8526 72.191 74.9194C73.0666 74.9194 73.9422 75.0164 74.8097 75.1134L75.4363 75.1862C75.7335 75.1862 75.4844 75.2993 75.2676 75.1862C75.3728 75.2132 75.4804 75.2295 75.5889 75.2347C76.0708 75.2993 76.5448 75.3802 77.0187 75.4772C78.8502 75.8192 80.6465 76.3306 82.3846 77.0049L82.7059 77.1342C83.0031 77.2554 82.9469 77.215 82.7059 77.1342C82.979 77.2312 83.2361 77.3686 83.5092 77.4899C84.0152 77.7243 84.5133 77.9748 84.9952 78.2416C86.0093 78.7931 86.9861 79.4115 87.9192 80.0926L88.4975 75.655C80.2961 78.379 72.0946 81.7092 65.2025 87.0441C63.092 88.6713 61.1001 90.4488 59.2422 92.3628C58.7895 92.8173 58.5348 93.4341 58.534 94.0776C58.5332 94.7211 58.7866 95.3385 59.2382 95.7941C59.6899 96.2496 60.3028 96.506 60.9423 96.5067C61.5818 96.5075 62.1954 96.2526 62.6481 95.7981C64.2036 94.1801 65.8618 92.6653 67.6124 91.2635C67.7409 91.1503 68.3514 90.6977 67.7489 91.1503L68.2389 90.7704L69.2912 90.0025C70.298 89.2858 71.3262 88.6068 72.3758 87.9656C74.3454 86.7722 76.381 85.6927 78.4726 84.7323L79.8462 84.1342L80.521 83.8432C80.8503 83.6977 79.9667 84.0695 80.4648 83.8432L80.9066 83.6573C81.7982 83.2855 82.6979 82.9298 83.6056 82.5822C85.6459 81.7739 87.7023 81.0303 89.7747 80.3432C90.2224 80.207 90.621 79.9427 90.922 79.5824C91.223 79.2221 91.4132 78.7815 91.4696 78.3143C91.5276 77.842 91.4503 77.3628 91.2468 76.9332C91.0433 76.5036 90.7221 76.1415 90.3209 75.8894C83.8947 71.1527 75.6531 69.6573 67.8292 70.1019C66.0058 70.207 64.1824 70.4171 62.367 70.692C61.768 70.8704 61.2594 71.2723 60.9452 71.8155C60.7848 72.0908 60.6801 72.3953 60.6369 72.7114C60.5937 73.0276 60.613 73.3492 60.6936 73.6578C60.7742 73.9664 60.9145 74.256 61.1066 74.51C61.2986 74.7639 61.5386 74.9772 61.8127 75.1377C62.3861 75.4274 63.0403 75.5129 63.6683 75.3802H63.6763Z" fill="#231F20"/>
<path d="M146.56 82.6832C153.156 81.0725 157.76 76.686 156.844 72.8857C155.927 69.0853 149.837 67.3103 143.241 68.921C136.645 70.5317 132.04 74.9182 132.957 78.7185C133.873 82.5189 139.964 84.2939 146.56 82.6832Z" fill="#F26E6E"/>
<path d="M56.6933 106.498C63.2895 104.887 67.8939 100.501 66.9774 96.7005C66.0609 92.9002 59.9707 91.1251 53.3745 92.7358C46.7783 94.3466 42.174 98.7331 43.0904 102.533C44.0069 106.334 50.0971 108.109 56.6933 106.498Z" fill="#F26E6E"/>
</svg>
