<svg width="200" height="200" viewBox="0 0 200 200" fill="none" xmlns="http://www.w3.org/2000/svg">
<rect width="200" height="200" fill="white"/>
<path d="M142.412 46.9759L62.1254 66.5809C57.6374 67.6768 54.882 72.2262 55.9711 76.7424L74.8325 154.956C75.9216 159.472 80.4427 162.245 84.9307 161.149L165.218 141.544C169.706 140.448 172.461 135.899 171.372 131.383L152.51 53.1688C151.421 48.6527 146.9 45.88 142.412 46.9759Z" stroke="#231F20" stroke-width="8" stroke-miterlimit="10"/>
<path d="M82.0983 61.52C81.4798 61.3583 51.8469 52.4911 51.8469 52.4911C51.8469 52.4911 49.3809 51.5616 48.6901 52.4911C47.9992 53.4207 47.0835 57.6401 47.0835 57.6401L25.4593 140.751C25.4593 140.751 24.7846 143.451 26.6241 143.741C28.4636 144.032 76.7485 156.246 76.7485 156.246" stroke="#231F20" stroke-width="8" stroke-miterlimit="10"/>
<path d="M90.7416 159.722C90.7416 159.722 114.784 168.476 116.358 167.522L120.021 153.441" stroke="#231F20" stroke-width="8" stroke-miterlimit="10"/>
<path d="M108.767 67.6227L113.699 57.1147L114.414 55.6031C114.829 54.8408 114.946 53.9502 114.743 53.1055C114.509 52.2978 113.981 51.6082 113.265 51.1736C111.836 50.4138 109.635 50.7048 108.863 52.3376L103.931 62.8456L103.257 64.3572C102.844 65.1175 102.73 66.0056 102.935 66.8468C103.159 67.6601 103.689 68.3534 104.413 68.7786C105.843 69.5384 108.036 69.2474 108.807 67.6227H108.767Z" fill="#231F20"/>
<path d="M113.667 53.0004C119.598 53.0004 124.407 48.1619 124.407 42.1932C124.407 36.2246 119.598 31.3861 113.667 31.3861C107.736 31.3861 102.927 36.2246 102.927 42.1932C102.927 48.1619 107.736 53.0004 113.667 53.0004Z" stroke="#231F20" stroke-width="8" stroke-miterlimit="10"/>
<path d="M104.903 105.565C104.38 106.507 104.076 107.556 104.014 108.633C103.952 109.711 104.135 110.788 104.547 111.784C104.959 112.781 105.591 113.67 106.394 114.385C107.197 115.099 108.152 115.622 109.185 115.911C110.198 116.164 111.25 116.212 112.282 116.052C113.313 115.893 114.303 115.529 115.193 114.982C116.03 114.474 116.728 113.766 117.225 112.921C117.475 112.492 117.691 112.039 117.916 111.603C118.141 111.167 118.495 110.488 118.808 109.938C118.904 109.752 119.033 109.582 119.129 109.396C119.226 109.21 118.768 109.817 118.904 109.679C119.041 109.542 119.025 109.55 118.8 109.768C118.575 109.986 118.8 109.833 118.88 109.768C118.776 109.841 118.358 109.954 118.72 109.857C119.081 109.76 118.077 109.857 118.342 109.914C118.342 109.914 117.74 109.784 117.956 109.865L118.205 109.922C118.479 110.003 118.744 110.1 119.009 110.197L119.86 110.536L120.318 110.722C119.981 110.585 120.318 110.722 120.406 110.722L121.483 111.191C122.386 111.593 123.362 111.805 124.351 111.813C126.322 111.828 128.229 111.105 129.7 109.784C130.535 108.958 131.144 107.928 131.466 106.795C131.788 105.662 131.814 104.464 131.54 103.318C131.31 102.114 130.745 101 129.91 100.107C129.075 99.2142 128.005 98.5784 126.825 98.2739C126.565 98.2028 126.293 98.1839 126.026 98.2184C125.759 98.2528 125.501 98.3398 125.267 98.4746C125.033 98.6093 124.828 98.7891 124.663 99.0036C124.498 99.2181 124.377 99.4632 124.306 99.7249C124.236 99.9865 124.217 100.26 124.251 100.529C124.285 100.798 124.372 101.057 124.506 101.292C124.64 101.528 124.818 101.734 125.031 101.9C125.245 102.066 125.488 102.188 125.748 102.259C125.909 102.259 126.07 102.356 126.222 102.404C126.375 102.453 126.415 102.404 126.142 102.356C126.239 102.393 126.33 102.442 126.415 102.501C126.509 102.55 126.6 102.604 126.688 102.663C126.784 102.728 126.921 102.897 126.688 102.663L127.066 103.043C127.307 103.294 127.009 103.043 127.001 102.954C127.046 103.034 127.097 103.109 127.154 103.18C127.25 103.334 127.331 103.496 127.419 103.657C127.507 103.819 127.475 103.609 127.419 103.552C127.419 103.552 127.507 103.795 127.515 103.811C127.572 103.981 127.62 104.167 127.66 104.344C127.685 104.435 127.704 104.526 127.716 104.619C127.716 104.619 127.716 104.175 127.716 104.498C127.716 104.684 127.716 104.862 127.716 105.048C127.716 105.234 127.668 105.436 127.716 105.605C127.716 105.541 127.813 105.137 127.716 105.476C127.716 105.589 127.716 105.694 127.644 105.807C127.572 105.921 127.564 106.244 127.499 106.26C127.435 106.276 127.684 105.88 127.499 106.147C127.451 106.228 127.411 106.309 127.371 106.389L127.226 106.608C127.033 106.939 127.291 106.494 127.315 106.511C127.339 106.527 126.945 106.907 126.913 106.931C126.853 106.992 126.788 107.048 126.72 107.101C126.543 107.287 127.05 106.915 126.825 107.028C126.6 107.141 126.568 107.198 126.439 107.27C126.291 107.359 126.138 107.44 125.981 107.513C125.636 107.691 126.094 107.456 126.102 107.464L125.788 107.578C125.625 107.635 125.459 107.683 125.29 107.723C125.137 107.732 124.986 107.762 124.841 107.812C124.897 107.723 125.282 107.812 124.993 107.812H124.736C124.551 107.812 124.359 107.812 124.174 107.812C123.989 107.812 123.515 107.755 123.885 107.812C124.254 107.869 123.708 107.772 123.628 107.755L123.242 107.634C122.864 107.529 123.732 107.852 123.387 107.699L122.214 107.19C121.186 106.676 120.109 106.267 119.001 105.969C118.494 105.87 117.972 105.892 117.476 106.032C116.979 106.173 116.522 106.428 116.141 106.777C115.816 107.122 115.545 107.514 115.338 107.941C114.824 108.863 114.358 109.817 113.86 110.754L113.763 110.916C113.763 110.989 113.683 111.045 113.643 111.118C113.466 111.409 113.707 110.997 113.739 110.997C113.771 110.997 113.45 111.296 113.402 111.344C113.335 111.397 113.27 111.454 113.209 111.514C113.209 111.449 113.611 111.247 113.209 111.458L112.807 111.692C112.729 111.74 112.645 111.781 112.558 111.813C112.607 111.813 112.944 111.668 112.663 111.813C112.284 111.943 111.898 112.048 111.506 112.128C111.233 112.193 111.9 112.128 111.619 112.128C111.498 112.128 111.378 112.128 111.257 112.128C111.043 112.14 110.829 112.14 110.615 112.128C110.534 112.128 110.237 112.056 110.526 112.128C110.815 112.201 110.398 112.128 110.374 112.128C110.165 112.08 109.964 112.007 109.755 111.943C109.546 111.878 110.092 112.12 109.851 111.943L109.546 111.781L109.305 111.635C109.249 111.635 108.944 111.336 109.169 111.538L109.096 111.474C109.008 111.393 108.928 111.312 108.847 111.223L108.655 111.013C108.397 110.738 108.783 111.231 108.655 111.013C108.526 110.795 108.422 110.657 108.317 110.463C108.317 110.463 108.197 110.205 108.189 110.205C108.181 110.205 108.341 110.617 108.189 110.205C108.116 109.994 108.068 109.776 108.012 109.566C107.956 109.356 107.883 109.17 108.012 109.663C107.992 109.51 107.992 109.355 108.012 109.202C108.012 109.081 108.012 108.968 108.012 108.847V108.596V108.814C108.027 108.594 108.079 108.379 108.165 108.176C108.165 108.087 108.221 108.006 108.245 107.925C108.349 107.594 108.293 107.925 108.189 108.022C108.27 107.898 108.337 107.765 108.389 107.626C108.522 107.397 108.609 107.143 108.645 106.88C108.68 106.617 108.664 106.35 108.597 106.093C108.53 105.837 108.413 105.596 108.253 105.384C108.094 105.173 107.894 104.995 107.667 104.862C107.439 104.728 107.187 104.641 106.925 104.605C106.664 104.569 106.398 104.585 106.143 104.653C105.888 104.72 105.649 104.838 105.439 104.999C105.229 105.159 105.052 105.36 104.919 105.589L104.903 105.565Z" fill="#231F20"/>
<path d="M141.099 74.3236C134.914 76.8375 129.283 80.4991 125.218 85.9067C123.774 87.8492 122.601 89.9814 121.732 92.2439C121.611 92.6567 121.605 93.0948 121.714 93.5108C121.823 93.9267 122.043 94.3048 122.35 94.6042C122.656 94.9005 123.032 95.1133 123.443 95.2222C123.853 95.3311 124.285 95.3327 124.696 95.2266C126.383 94.879 128.078 94.5961 129.781 94.3213L131.01 94.1354L131.604 94.0464H131.909C132.456 93.9656 131.323 94.1192 131.909 94.0464C132.809 93.9252 133.717 93.8201 134.624 93.7312C136.646 93.5412 138.676 93.4683 140.705 93.513C141.822 93.513 142.938 93.61 144.055 93.7231C144.481 93.7231 144.906 93.8201 145.324 93.8686H145.059H145.316L145.991 93.9737C148.168 94.333 150.315 94.8517 152.417 95.5257C153.033 95.6969 153.691 95.6151 154.247 95.2983C154.802 94.9815 155.21 94.4557 155.381 93.8363C155.536 93.2173 155.448 92.5619 155.136 92.0064C154.823 91.4509 154.31 91.038 153.702 90.8536C149.798 89.6048 145.746 88.8792 141.653 88.6954C137.528 88.5789 133.4 88.8686 129.331 89.5603C127.363 89.8594 125.403 90.1827 123.451 90.5869L126.415 93.5695C126.463 93.4564 126.495 93.327 126.552 93.222C126.319 93.6827 126.479 93.3917 126.552 93.2785C126.656 93.0441 126.76 92.8178 126.873 92.5834C127.106 92.0984 127.355 91.6134 127.612 91.1446C128.054 90.3363 128.536 89.6088 129.05 88.8813L129.419 88.3883C129.628 88.1054 129.419 88.5095 129.323 88.5095C129.392 88.4379 129.454 88.3594 129.508 88.2751C129.781 87.9356 130.054 87.6123 130.311 87.289C130.865 86.6585 131.452 86.0603 132.054 85.4864C132.656 84.9125 133.227 84.4275 133.845 83.9345L134.118 83.7081C134.359 83.5222 133.717 84.0153 133.966 83.8375L134.408 83.498C134.721 83.2717 135.034 83.0453 135.355 82.8271C136.556 82.0008 137.806 81.2503 139.099 80.58C139.725 80.2486 140.368 79.9333 141.019 79.6342L141.95 79.2139C142.48 78.9795 141.412 79.4403 141.95 79.2139L142.408 79.028C143.001 78.8395 143.51 78.4477 143.846 77.9206C144.009 77.6402 144.114 77.3297 144.156 77.0076C144.197 76.6855 144.174 76.3582 144.087 76.0453C143.726 74.9137 142.376 73.8467 141.123 74.356L141.099 74.3236Z" fill="#231F20"/>
<path d="M78.6764 95.3802L79.1182 95.3155H79.3431H79.0459C79.3993 95.2427 79.7608 95.2185 80.1223 95.1781C80.8506 95.0973 81.5815 95.0326 82.3152 94.9841C83.9381 94.8742 85.5658 94.8526 87.1911 94.9194C88.0666 94.9194 88.9422 95.0164 89.8098 95.1134L90.4363 95.1862C90.7335 95.1862 90.4845 95.2993 90.2676 95.1862C90.3728 95.2132 90.4805 95.2295 90.5889 95.2347C91.0709 95.2993 91.5448 95.3802 92.0188 95.4772C93.8503 95.8192 95.6465 96.3306 97.3846 97.0049L97.706 97.1342C98.0032 97.2554 97.9469 97.215 97.706 97.1342C97.9791 97.2312 98.2361 97.3686 98.5092 97.4899C99.0153 97.7243 99.5133 97.9748 99.9953 98.2416C101.009 98.7931 101.986 99.4115 102.919 100.093L103.498 95.655C95.2961 98.379 87.0947 101.709 80.2026 107.044C78.092 108.671 76.1001 110.449 74.2423 112.363C73.7896 112.817 73.5348 113.434 73.5341 114.078C73.5333 114.721 73.7866 115.339 74.2383 115.794C74.6899 116.25 75.3029 116.506 75.9424 116.507C76.5819 116.507 77.1955 116.253 77.6482 115.798C79.2037 114.18 80.8619 112.665 82.6124 111.263C82.7409 111.15 83.3514 110.698 82.749 111.15L83.239 110.77L84.2913 110.003C85.298 109.286 86.3262 108.607 87.3758 107.966C89.3455 106.772 91.3811 105.693 93.4727 104.732L94.8463 104.134L95.521 103.843C95.8504 103.698 94.9668 104.07 95.4648 103.843L95.9066 103.657C96.7983 103.285 97.6979 102.93 98.6056 102.582C100.646 101.774 102.702 101.03 104.775 100.343C105.222 100.207 105.621 99.9427 105.922 99.5824C106.223 99.2221 106.413 98.7815 106.47 98.3143C106.528 97.842 106.45 97.3628 106.247 96.9332C106.043 96.5036 105.722 96.1415 105.321 95.8894C98.8948 91.1527 90.6532 89.6573 82.8293 90.1019C81.0059 90.207 79.1824 90.4171 77.367 90.692C76.7681 90.8704 76.2595 91.2723 75.9452 91.8155C75.7849 92.0908 75.6801 92.3953 75.637 92.7114C75.5938 93.0276 75.6131 93.3492 75.6937 93.6578C75.7743 93.9664 75.9146 94.256 76.1066 94.51C76.2987 94.7639 76.5386 94.9772 76.8128 95.1377C77.3862 95.4274 78.0404 95.5129 78.6683 95.3802H78.6764Z" fill="#231F20"/>
<path d="M161.56 102.683C168.156 101.073 172.76 96.686 171.844 92.8857C170.927 89.0853 164.837 87.3103 158.241 88.921C151.645 90.5317 147.04 94.9182 147.957 98.7185C148.873 102.519 154.964 104.294 161.56 102.683Z" fill="#F26E6E"/>
<path d="M71.6933 126.498C78.2895 124.887 82.8939 120.501 81.9774 116.701C81.0609 112.9 74.9707 111.125 68.3745 112.736C61.7783 114.347 57.174 118.733 58.0904 122.533C59.0069 126.334 65.0971 128.109 71.6933 126.498Z" fill="#F26E6E"/>
</svg>
